<?xml version="1.0" encoding="UTF-8"?>
<svg xmlns="http://www.w3.org/2000/svg" xmlns:xlink="http://www.w3.org/1999/xlink" viewBox="0 0 24 24" width="24px" height="24px">
<g id="surface55625703">
<path style=" stroke:none;fill-rule:nonzero;fill:rgb(100%,100%,100%);fill-opacity:1;" d="M 12 0 L 8 4 L 12 8 L 12 5 C 15.859375 5 19 8.140625 19 12 C 19 12.878906 18.828125 13.71875 18.53125 14.496094 L 20.046875 16.011719 C 20.652344 14.800781 21 13.441406 21 12 C 21 7.039062 16.964844 3 12 3 Z M 3.953125 7.992188 C 3.347656 9.199219 3 10.558594 3 12 C 3 16.960938 7.035156 21 12 21 L 12 24 L 16 20 L 12 16 L 12 19 C 8.140625 19 5 15.859375 5 12 C 5 11.121094 5.171875 10.28125 5.46875 9.503906 Z M 3.953125 7.992188 "/>
</g>
</svg>
